<svg width="920" height="246" fill="none" xmlns="http://www.w3.org/2000/svg"><rect x=".714" y=".714" width="918.572" height="244.572" rx="11.82" fill="#82A2AF" stroke="#5D7985" stroke-width="1.428"/><path d="M319.885 141.686c-3.77 0-6.292-3.016-6.292-6.786 0-3.744 2.522-6.786 6.292-6.786 2.314 0 4.16 1.144 5.226 2.912l2.262-1.144c-1.508-2.548-4.212-4.238-7.488-4.238-5.148 0-8.84 4.134-8.84 9.256 0 5.148 3.692 9.282 8.84 9.282 3.276 0 5.98-1.69 7.488-4.264l-2.262-1.118c-1.066 1.742-2.912 2.886-5.226 2.886zm15.011-10.4c-1.3 0-2.392.52-3.198 1.378V125.8h-2.496V144h2.496v-6.994c0-2.34 1.222-3.25 2.756-3.25 1.456 0 2.626.962 2.626 3.406V144h2.47v-7.072c0-3.614-1.69-5.642-4.654-5.642zm12.595 0c-3.64 0-6.11 2.912-6.11 6.448 0 3.536 2.496 6.448 6.11 6.448 3.64 0 6.11-2.912 6.11-6.448 0-3.536-2.47-6.448-6.11-6.448zm0 10.426c-2.262 0-3.484-1.82-3.484-3.978 0-2.158 1.222-3.978 3.484-3.978 2.288 0 3.484 1.82 3.484 3.978 0 2.158-1.222 3.978-3.484 3.978zm13.787-10.426c-3.64 0-6.11 2.912-6.11 6.448 0 3.536 2.496 6.448 6.11 6.448 3.64 0 6.11-2.912 6.11-6.448 0-3.536-2.47-6.448-6.11-6.448zm0 10.426c-2.262 0-3.484-1.82-3.484-3.978 0-2.158 1.222-3.978 3.484-3.978 2.288 0 3.484 1.82 3.484 3.978 0 2.158-1.222 3.978-3.484 3.978zm17.141-1.716c-.156-1.976-1.612-2.834-4.472-3.354-2.028-.364-2.548-.936-2.548-1.612 0-.468.312-1.326 1.976-1.326.988 0 2.002.546 2.288 1.404l2.34-.806c-.208-.78-1.404-3.016-4.628-3.016-3.458 0-4.784 2.496-4.446 4.472.312 1.898 1.794 2.652 4.212 3.146 1.95.39 2.704.754 2.782 1.352.104.702-.546 1.508-2.21 1.508-1.69 0-2.522-.78-2.808-1.56l-2.34.832c.598 1.716 2.392 3.198 5.252 3.198s4.81-1.794 4.602-4.238zm12.972-1.014a6.74 6.74 0 00.104-1.248c0-3.536-1.95-6.448-5.59-6.448-3.64 0-6.032 2.912-6.032 6.448 0 3.536 2.47 6.448 6.11 6.448 2.314 0 4.108-1.17 5.122-2.938l-2.262-1.092c-.572.936-1.534 1.56-2.86 1.56-1.82 0-2.964-1.17-3.328-2.73h8.736zm-5.486-5.226c1.872 0 2.782 1.248 3.042 2.886h-6.344c.338-1.638 1.43-2.886 3.302-2.886zm19.919-2.496c-3.25 0-4.758 2.132-5.07 3.718l2.236.468c.364-1.326 1.404-1.924 2.652-1.976 1.066-.078 2.47.468 2.288 1.69-.13.884-1.508.988-3.12 1.404-2.574.676-4.29 1.404-4.576 3.874-.234 2.054 1.352 4.004 4.29 3.744 1.95-.182 3.016-1.118 3.484-1.664V144h2.444v-8.138c0-3.328-2.002-4.602-4.628-4.602zm2.184 7.384c0 1.976-1.872 3.198-3.146 3.302-1.378.104-1.846-.416-1.924-.988-.078-.494.052-1.56 2.288-2.132 1.664-.416 2.782-.728 2.782-.728v.546zm15.083-12.844c-1.56.494-2.34 1.768-2.34 4.056v1.612h-1.456v2.262h1.456V144h2.496v-10.27h2.262v-2.262h-2.262v-1.586c0-.936.208-1.482.754-1.716.468-.182 1.352 0 1.846.442l1.404-1.82c-.962-.936-2.86-1.378-4.16-.988zm5.013 18.2h2.47v-12.532h-2.47V144zm1.248-14.456c.78 0 1.43-.65 1.43-1.456 0-.78-.65-1.43-1.43-1.43-.806 0-1.456.65-1.456 1.43 0 .806.65 1.456 1.456 1.456zm3.901-5.044V144h2.496v-19.5h-2.496zm15.978 14.482a6.74 6.74 0 00.104-1.248c0-3.536-1.95-6.448-5.59-6.448-3.64 0-6.032 2.912-6.032 6.448 0 3.536 2.47 6.448 6.11 6.448 2.314 0 4.108-1.17 5.122-2.938l-2.262-1.092c-.572.936-1.534 1.56-2.86 1.56-1.82 0-2.964-1.17-3.328-2.73h8.736zm-5.486-5.226c1.872 0 2.782 1.248 3.042 2.886h-6.344c.338-1.638 1.43-2.886 3.302-2.886zm20.594-2.47c-3.562 0-6.032 2.886-6.032 6.474s2.47 6.448 6.032 6.448c3.588 0 6.11-2.86 6.11-6.448 0-3.588-2.522-6.474-6.11-6.474zm0 11.076c-2.574 0-4.134-2.028-4.134-4.602 0-2.574 1.56-4.654 4.134-4.654 2.574 0 4.212 2.08 4.212 4.654s-1.638 4.602-4.212 4.602zm13.835-11.076c-1.508 0-2.756.624-3.614 1.638v-1.456h-1.898V144h1.898v-6.76c0-2.756 1.404-4.082 3.328-4.082.312 0 .598.026.858.078l.364-1.898c-.312-.026-.624-.052-.936-.052zm19.263-5.486v7.384c-.936-1.17-2.34-1.898-4.134-1.898-3.588 0-5.876 2.886-5.876 6.474 0 3.562 2.288 6.422 5.876 6.422 1.794 0 3.198-.702 4.134-1.872V144h1.872v-18.2h-1.872zm-4.134 16.562c-2.574 0-3.978-2.028-3.978-4.602 0-2.574 1.404-4.654 3.978-4.654 2.574 0 4.056 2.08 4.056 4.654s-1.482 4.602-4.056 4.602zm14.248-11.076c-1.508 0-2.756.624-3.614 1.638v-1.456h-1.898V144h1.898v-6.76c0-2.756 1.404-4.082 3.328-4.082.312 0 .598.026.858.078l.364-1.898c-.312-.026-.624-.052-.936-.052zM519.533 144s-.026-5.85-.026-8.398c0-2.652-1.69-4.316-4.602-4.316-3.068 0-4.524 1.768-4.862 3.458l1.664.39c.312-1.066.936-2.158 3.146-2.158 2.392 0 2.834 1.378 2.86 2.236.026.832-.728 1.196-2.678 1.508-3.848.624-5.772 1.742-5.772 4.212 0 2.106 1.716 3.25 4.03 3.25 1.794 0 3.25-.728 4.368-1.69V144h1.872zm-6.084-1.586c-.624 0-2.21-.234-2.21-1.612 0-1.378 1.352-1.924 4.056-2.366.936-.156 1.742-.26 2.418-.39v.572c.026 2.262-1.82 3.796-4.264 3.796zm18.011-10.946v1.69c-.936-1.17-2.34-1.872-4.108-1.872-3.588 0-5.876 2.886-5.876 6.474 0 3.562 2.288 6.422 5.876 6.422 1.768 0 3.172-.702 4.108-1.872v1.014c0 3.146-1.508 4.732-4.056 4.732-1.508 0-2.964-.728-3.666-1.872l-1.56.936c1.014 1.664 3.042 2.756 5.226 2.756 3.77 0 5.954-2.392 5.954-6.396v-12.012h-1.898zm-4.108 10.894c-2.574 0-3.978-2.028-3.978-4.602 0-2.574 1.404-4.654 3.978-4.654 2.548 0 4.03 2.08 4.03 4.654s-1.482 4.602-4.03 4.602zM543.609 144h1.898v-12.532h-1.898V144zm.936-14.924c.598 0 1.066-.468 1.066-1.04 0-.598-.468-1.066-1.066-1.066-.572 0-1.04.468-1.04 1.066 0 .572.468 1.04 1.04 1.04zm9.449 12.714c-.78.65-1.82.624-2.236.286-.442-.39-.494-.988-.494-2.028v-6.682h2.652v-1.898h-2.652v-3.276l-1.898.52v2.756h-1.924v1.898h1.924v6.734c0 2.886 1.014 3.9 2.652 4.082.806.104 2.054-.234 2.938-.962l-.962-1.43zm15.59-10.504c-1.534 0-2.756.624-3.614 1.638V125.8h-1.898V144h1.898v-6.76c0-2.782 1.404-4.082 3.328-4.082 2.028 0 3.172 1.196 3.172 3.926V144h1.872v-6.916c0-4.602-2.262-5.798-4.758-5.798zm12.792 0c-3.562 0-5.954 2.886-5.954 6.474 0 3.562 2.548 6.422 6.11 6.422 2.288 0 4.056-1.118 5.096-2.886l-1.638-.806c-.754 1.17-1.898 1.872-3.458 1.872-2.34 0-3.9-1.69-4.16-3.952h9.646c0-.208.026-.442.026-.65 0-3.588-2.08-6.474-5.668-6.474zm0 1.82c2.158 0 3.38 1.456 3.744 3.432h-7.67c.39-1.976 1.794-3.432 3.926-3.432zm13.382-1.82c-1.508 0-2.756.624-3.614 1.638v-1.456h-1.898V144h1.898v-6.76c0-2.756 1.404-4.082 3.328-4.082.312 0 .598.026.858.078l.364-1.898c-.312-.026-.624-.052-.936-.052zm7.666 0c-3.562 0-5.954 2.886-5.954 6.474 0 3.562 2.548 6.422 6.11 6.422 2.288 0 4.056-1.118 5.096-2.886l-1.638-.806c-.754 1.17-1.898 1.872-3.458 1.872-2.34 0-3.9-1.69-4.16-3.952h9.646c0-.208.026-.442.026-.65 0-3.588-2.08-6.474-5.668-6.474zm0 1.82c2.158 0 3.38 1.456 3.744 3.432h-7.67c.39-1.976 1.794-3.432 3.926-3.432z" fill="#F2F4F5"/><rect x="15.777" y="13.777" width="888.445" height="218.445" rx="5.441" stroke="#BDCDD3" stroke-width="1.555" stroke-dasharray="3.11 3.11"/></svg>