<svg width="567" height="251" viewBox="0 0 567 251" fill="none" xmlns="http://www.w3.org/2000/svg">
<path d="M6.92152 249.167C7.31099 250.314 8.55729 250.929 9.70521 250.54L28.4115 244.193C29.5595 243.804 30.1743 242.557 29.7848 241.409C29.3953 240.261 28.149 239.647 27.0011 240.036L10.3733 245.678L4.73163 229.05C4.34215 227.902 3.09586 227.287 1.94794 227.677C0.800029 228.066 0.185192 229.312 0.574667 230.46L6.92152 249.167ZM566.067 47.1892C457.669 1.6919 350.071 -13.512 253.398 15.4045C156.665 44.3391 71.2395 117.338 7.03164 247.49L10.9684 249.432C74.7605 120.123 159.335 48.1222 254.656 19.6101C350.038 -8.92016 456.549 5.9824 564.368 51.2368L566.067 47.1892Z" fill="#57707A"/>
</svg>
